<svg width="32" height="35" viewBox="0 0 32 35" fill="none" xmlns="http://www.w3.org/2000/svg">
<path d="M2.27274 35C1.67856 35 1.20321 34.774 0.846706 34.3219C0.490198 33.8698 0.386217 33.3667 0.534762 32.8125L7.21928 6.5625L7.13016 5.3375C7.10045 4.84167 6.92219 4.41146 6.59539 4.04688C6.26859 3.68229 5.85267 3.5 5.34762 3.5C4.84256 3.5 4.41921 3.66771 4.07756 4.00313C3.7359 4.33854 3.56508 4.75417 3.56508 5.25V7C3.56508 7.49583 3.39425 7.91146 3.0526 8.24687C2.71094 8.58229 2.28759 8.75 1.78254 8.75C1.27749 8.75 0.854133 8.58229 0.51248 8.24687C0.170827 7.91146 0 7.49583 0 7V5.25C0 3.79167 0.519907 2.55208 1.55972 1.53125C2.59954 0.510417 3.86217 0 5.34762 0H25.0447C26.4707 0 27.6962 0.473958 28.7212 1.42188C29.7461 2.36979 30.3032 3.54375 30.3923 4.94375L31.9966 33.1625C32.0263 33.6583 31.8629 34.0885 31.5064 34.4531C31.1499 34.8177 30.7191 35 30.214 35H2.27274ZM4.6346 31.5H8.779L7.9323 18.2L4.6346 31.5ZM12.3886 31.5H28.3424L26.8272 5.1625C26.7975 4.69583 26.6118 4.30208 26.2702 3.98125C25.9285 3.66042 25.52 3.5 25.0447 3.5H10.3833C10.5021 3.79167 10.5764 4.07604 10.6061 4.35313C10.6358 4.63021 10.6655 4.92917 10.6952 5.25L12.3886 31.5ZM19.1623 28C19.5485 28 19.8679 27.876 20.1204 27.6281C20.3729 27.3802 20.4992 27.0667 20.4992 26.6875V21C21.2716 20.825 21.9104 20.424 22.4154 19.7969C22.9205 19.1698 23.173 18.4479 23.173 17.6313V11.375C23.173 11.1417 23.0839 10.9375 22.9056 10.7625C22.7274 10.5875 22.5194 10.5 22.2817 10.5C22.0441 10.5 21.8361 10.5875 21.6578 10.7625C21.4796 10.9375 21.3905 11.1417 21.3905 11.375V17.1063H20.0536V11.375C20.0536 11.1417 19.9644 10.9375 19.7862 10.7625C19.6079 10.5875 19.4 10.5 19.1623 10.5C18.9246 10.5 18.7167 10.5875 18.5384 10.7625C18.3602 10.9375 18.271 11.1417 18.271 11.375V17.1063H16.9341V11.375C16.9341 11.1417 16.845 10.9375 16.6667 10.7625C16.4885 10.5875 16.2805 10.5 16.0428 10.5C15.8052 10.5 15.5972 10.5875 15.419 10.7625C15.2407 10.9375 15.1516 11.1417 15.1516 11.375V17.6313C15.1516 18.4479 15.4041 19.1698 15.9092 19.7969C16.4142 20.424 17.053 20.825 17.8254 21V26.6875C17.8254 27.0667 17.9517 27.3802 18.2042 27.6281C18.4567 27.876 18.7761 28 19.1623 28Z" fill="white"/>
</svg>
